# xmcd
#
# Track frame offsets:
#	150
#	10415
#	20857
#	35287
#	49015
#	58997
#	68220
#	79012
#	91712
#	100377
#
# Disc length: 1491 seconds
#
# Revision: 0
# Processed by: cddbd v1.5.1PL2 Copyright (c) Steve Scherf et al.
# Submitted via: dBpowerAMP V4.0
#
DISCID=7e05d10a
DTITLE=Charley Pride - All American Country
DYEAR=2005
DGENRE=Country
TTITLE0=Just Between You And Me
TTITLE1=Does My Ring Hurt Your Finger
TTITLE2=Kaw-Liga
TTITLE3=All I Have To Offer You (Is Me)
TTITLE4=Is Anybody Goin' To San Antone
TTITLE5=Kiss An Angel Good Mornin'
TTITLE6=Mississippi Cotton Picking Delta Town
TTITLE7=Mountain Of Love
TTITLE8=Guess Things Happen That Way
TTITLE9=Act Naturally
EXTD=
EXTT0=
EXTT1=
EXTT2=
EXTT3=
EXTT4=
EXTT5=
EXTT6=
EXTT7=
EXTT8=
EXTT9=
PLAYORDER=
